<svg width="504" height="364" viewBox="0 0 504 364" fill="none" xmlns="http://www.w3.org/2000/svg">
<path fill-rule="evenodd" clip-rule="evenodd" d="M332.781 68.179H435.3C445.838 68.179 454.827 73.798 458.637 82.771L498.307 176.177C499.48 178.94 500 181.475 500 184.439V300.002C500 308.264 493.262 315.002 485 315.002H473.391C473.391 281.318 446.075 254.002 412.391 254.002C378.707 254.002 351.391 281.318 351.391 315.002H332.781V68.179ZM124.673 270.002C149.526 270.002 169.673 290.149 169.673 315.002C169.673 339.855 149.526 360.002 124.673 360.002C99.82 360.002 79.673 339.855 79.673 315.002C79.674 290.149 99.82 270.002 124.673 270.002ZM124.673 292.502C112.238 292.502 102.174 302.567 102.174 315.002C102.174 327.437 112.238 337.502 124.673 337.502C137.108 337.502 147.173 327.438 147.173 315.002C147.174 302.567 137.109 292.502 124.673 292.502ZM412.391 270.002C387.538 270.002 367.391 290.149 367.391 315.002C367.391 339.855 387.538 360.002 412.391 360.002C437.244 360.002 457.391 339.855 457.391 315.002C457.391 290.149 437.244 270.002 412.391 270.002ZM412.391 292.502C399.956 292.502 389.891 302.567 389.891 315.002C389.891 327.437 399.955 337.502 412.391 337.502C424.827 337.502 434.891 327.438 434.891 315.002C434.891 302.567 424.826 292.502 412.391 292.502ZM4 295.003C4 306.018 12.984 315.003 23.999 315.003H63.673C63.673 281.319 90.989 254.003 124.673 254.003C158.357 254.003 185.673 281.319 185.673 315.003H316.78V152.971H4V295.003ZM4 109.47V23.997C4 12.982 12.984 3.99805 23.999 3.99805H296.781C307.796 3.99805 316.78 12.983 316.78 23.997V109.47H4ZM462.29 170.017L434.683 105.013C433.081 101.24 429.578 98.922 425.479 98.922H365.525C360.017 98.922 355.525 103.414 355.525 108.922V166.971C355.525 172.479 360.017 176.971 365.525 176.971H457.688C459.417 176.971 460.903 176.172 461.857 174.731C462.811 173.289 462.965 171.609 462.29 170.017Z" fill="white" stroke="black" stroke-width="8"/>
</svg>
