<svg width="512" height="755" viewBox="0 0 512 755" fill="none" xmlns="http://www.w3.org/2000/svg">
<mask id="path-1-inside-1_171_105" fill="white">
<path fill-rule="evenodd" clip-rule="evenodd" d="M100 0C66.8629 0 40 26.8629 40 60V695C40 728.137 66.8629 755 100 755H412C445.137 755 472 728.137 472 695V60C472 26.8629 445.137 0 412 0H100ZM113 81C100.85 81 91 90.8497 91 103V624C91 636.15 100.85 646 113 646H397C409.15 646 419 636.15 419 624V103C419 90.8497 409.15 81 397 81H113Z"/>
</mask>
<path fill-rule="evenodd" clip-rule="evenodd" d="M100 0C66.8629 0 40 26.8629 40 60V695C40 728.137 66.8629 755 100 755H412C445.137 755 472 728.137 472 695V60C472 26.8629 445.137 0 412 0H100ZM113 81C100.85 81 91 90.8497 91 103V624C91 636.15 100.85 646 113 646H397C409.15 646 419 636.15 419 624V103C419 90.8497 409.15 81 397 81H113Z" fill="white"/>
<path d="M46.5 60C46.5 30.4528 70.4528 6.5 100 6.5V-6.5C63.2731 -6.5 33.5 23.2731 33.5 60H46.5ZM46.5 695V60H33.5V695H46.5ZM100 748.5C70.4528 748.5 46.5 724.547 46.5 695H33.5C33.5 731.727 63.2731 761.5 100 761.5V748.5ZM412 748.5H100V761.5H412V748.5ZM465.5 695C465.5 724.547 441.547 748.5 412 748.5V761.5C448.727 761.5 478.5 731.727 478.5 695H465.5ZM465.5 60V695H478.5V60H465.5ZM412 6.5C441.547 6.5 465.5 30.4528 465.5 60H478.5C478.5 23.2731 448.727 -6.5 412 -6.5V6.5ZM100 6.5H412V-6.5H100V6.5ZM97.5 103C97.5 94.4396 104.44 87.5 113 87.5V74.5C97.2599 74.5 84.5 87.2599 84.5 103H97.5ZM97.5 624V103H84.5V624H97.5ZM113 639.5C104.44 639.5 97.5 632.56 97.5 624H84.5C84.5 639.74 97.2599 652.5 113 652.5V639.5ZM397 639.5H113V652.5H397V639.5ZM412.5 624C412.5 632.56 405.56 639.5 397 639.5V652.5C412.74 652.5 425.5 639.74 425.5 624H412.5ZM412.5 103V624H425.5V103H412.5ZM397 87.5C405.56 87.5 412.5 94.4396 412.5 103H425.5C425.5 87.2599 412.74 74.5 397 74.5V87.5ZM113 87.5H397V74.5H113V87.5Z" fill="black" mask="url(#path-1-inside-1_171_105)"/>
<circle cx="256" cy="697" r="33" fill="#D9D9D9" stroke="black" stroke-width="6"/>
<path d="M278.802 199.27C272.548 199.271 266.357 200.526 260.596 202.961C263.179 194.884 269.638 182.228 285.22 178.899C286.124 178.705 286.915 178.161 287.418 177.384C287.921 176.608 288.095 175.664 287.902 174.759C287.709 173.855 287.164 173.064 286.388 172.561C285.612 172.058 284.667 171.884 283.763 172.077C262.594 176.605 255.336 195.139 253.025 204.167C246.556 200.943 239.426 199.266 232.198 199.27C206.159 199.27 185 220.463 185 246.502C185 269.648 204.067 339.328 232.198 339.328C240.389 339.328 248.372 337.202 255.483 333.124C262.628 337.202 270.611 339.328 278.802 339.328C306.933 339.328 326 269.648 326 246.502C326 220.463 304.806 199.27 278.802 199.27ZM240.727 223.294C231.106 221.394 223.361 222.656 217.721 227.023C208.407 234.235 207.501 247.816 207.494 247.952C207.438 248.873 207.02 249.735 206.331 250.349C205.642 250.963 204.738 251.279 203.816 251.229C202.895 251.176 202.032 250.761 201.417 250.074C200.801 249.386 200.483 248.483 200.533 247.562C200.568 246.882 201.578 230.75 213.406 221.547C220.712 215.865 230.361 214.15 242.073 216.451C242.98 216.629 243.779 217.161 244.295 217.929C244.81 218.697 245 219.638 244.821 220.545C244.643 221.452 244.111 222.252 243.344 222.767C242.576 223.283 241.635 223.472 240.727 223.294Z" fill="black"/>
</svg>
