<svg width="713" height="521" viewBox="0 0 713 521" fill="none" xmlns="http://www.w3.org/2000/svg">
<path d="M50.0952 274.956V498.782C50.0952 508.296 57.805 516 67.3069 516C76.8088 516 84.5165 508.296 84.5165 498.782V373.076H90.9692V498.782C90.9692 508.296 98.6769 516 108.179 516C117.685 516 125.389 508.296 125.389 498.782V274.954C130.928 272.063 138.506 266.913 145.939 258.012C149.692 253.53 153.338 248.103 156.658 241.667V230.385C152.376 227.791 147.32 224.152 142.059 219.224C138.243 230.418 133.405 238.235 128.845 243.728C124.031 249.488 119.394 252.783 116.119 254.642C114.673 255.465 113.508 255.987 112.709 256.311H62.7821C59.845 255.121 51.8382 251.187 43.979 240.294C35.2364 228.108 26.3011 206.775 26.2755 169.015C26.2716 167.781 26.2834 166.549 26.3011 165.323C26.4113 159.171 21.5147 154.095 15.3631 153.987C9.21341 153.877 4.14179 158.779 4.03359 164.931C4.00802 166.328 4.00015 167.69 4.00015 169.017C3.95097 214.399 16.1382 242.006 29.5451 258.012C36.9775 266.915 44.5593 272.065 50.0952 274.956Z" fill="white" stroke="black" stroke-width="8"/>
<path d="M87.7428 248.378C105.041 248.378 119.064 234.35 119.064 217.045C119.064 199.741 105.041 185.713 87.7428 185.713C70.4447 185.713 56.4219 199.741 56.4219 217.045C56.4219 234.35 70.4447 248.378 87.7428 248.378Z" fill="white" stroke="black" stroke-width="8"/>
<path d="M164.528 225.791V495.271C164.528 506.723 173.808 515.998 185.245 515.998C196.691 515.998 205.971 506.723 205.971 495.271V343.924H213.735V495.271C213.735 506.723 223.015 515.998 234.457 515.998C245.902 515.998 255.178 506.723 255.178 495.271V225.791C261.849 222.31 270.969 216.111 279.918 205.393C282.519 202.289 285.08 198.818 287.549 194.957V183.932C282.401 180.557 276.576 176.054 270.605 170.215C267.029 177.796 263.104 183.658 259.335 188.195C253.541 195.13 247.966 199.099 244.02 201.337C242.275 202.327 240.876 202.957 239.912 203.346H179.8C176.265 201.912 166.625 197.177 157.161 184.062C146.636 169.392 135.883 143.706 135.847 98.2473C135.843 96.7614 135.859 95.2776 135.883 93.8016C136.013 86.394 130.115 80.2854 122.716 80.1555C115.307 80.0236 109.203 85.9237 109.077 93.3312C109.041 95.0099 109.035 96.6493 109.035 98.2493C108.974 152.885 123.648 186.124 139.79 205.395C148.735 216.111 157.861 222.312 164.528 225.791Z" fill="white" stroke="black" stroke-width="8"/>
<path d="M209.853 193.794C230.679 193.794 247.562 176.905 247.562 156.071C247.562 135.238 230.679 118.349 209.853 118.349C189.027 118.349 172.145 135.238 172.145 156.071C172.145 176.905 189.027 193.794 209.853 193.794Z" fill="white" stroke="black" stroke-width="8"/>
<path d="M600.273 256.313C599.474 255.988 598.31 255.469 596.864 254.644C593.588 252.785 588.953 249.49 584.137 243.73C579.579 238.237 574.742 230.422 570.925 219.23C565.665 224.154 560.609 227.793 556.328 230.387V241.677C559.649 248.109 563.292 253.534 567.044 258.014C574.476 266.915 582.054 272.065 587.594 274.956V498.784C587.594 508.297 595.298 516.002 604.804 516.002C614.305 516.002 622.013 508.297 622.013 498.784V373.078H628.466V498.784C628.466 508.297 636.174 516.002 645.676 516.002C655.177 516.002 662.887 508.297 662.887 498.784V274.956C668.423 272.065 676.005 266.913 683.435 258.012C696.842 242.006 709.032 214.397 708.98 169.017C708.98 167.69 708.972 166.327 708.945 164.933C708.837 158.781 703.765 153.879 697.615 153.989C691.464 154.097 686.569 159.171 686.677 165.325C686.695 166.551 686.707 167.783 686.703 169.017C686.677 206.777 677.742 228.11 669 240.296C661.14 251.189 653.135 255.123 650.196 256.313H600.273Z" fill="white" stroke="black" stroke-width="8"/>
<path d="M625.239 248.378C642.537 248.378 656.56 234.35 656.56 217.045C656.56 199.741 642.537 185.713 625.239 185.713C607.941 185.713 593.918 199.741 593.918 217.045C593.918 234.35 607.941 248.378 625.239 248.378Z" fill="white" stroke="black" stroke-width="8"/>
<path d="M473.071 203.346C472.107 202.957 470.708 202.327 468.963 201.337C465.017 199.099 459.442 195.132 453.648 188.195C449.881 183.656 445.954 177.792 442.378 170.211C436.411 176.044 430.586 180.551 425.438 183.932V194.961C427.906 198.818 430.468 202.291 433.067 205.393C442.016 216.111 451.136 222.312 457.807 225.791V495.273C457.807 506.725 467.083 516 478.528 516C489.97 516 499.249 506.725 499.249 495.273V343.926H507.014V495.273C507.014 506.725 516.294 516 527.739 516C539.177 516 548.457 506.725 548.457 495.273V225.791C555.124 222.31 564.248 216.111 573.197 205.391C589.339 186.12 604.012 152.881 603.951 98.2453C603.951 96.6454 603.944 95.006 603.908 93.3273C603.782 85.9198 597.676 80.0197 590.267 80.1516C582.866 80.2815 576.968 86.3901 577.1 93.7977C577.124 95.2737 577.14 96.7575 577.136 98.2434C577.1 143.702 566.347 169.388 555.822 184.058C546.358 197.173 536.718 201.908 533.183 203.342H473.071V203.346Z" fill="white" stroke="black" stroke-width="8"/>
<path d="M503.13 193.794C523.956 193.794 540.839 176.905 540.839 156.071C540.839 135.238 523.956 118.349 503.13 118.349C482.305 118.349 465.422 135.238 465.422 156.071C465.422 176.905 482.305 193.794 503.13 193.794Z" fill="white" stroke="black" stroke-width="8"/>
<path d="M303.285 174.958V491.28C303.285 504.722 314.178 515.611 327.606 515.611C341.039 515.611 351.932 504.722 351.932 491.28V313.627H361.05V491.28C361.05 504.722 371.943 515.611 385.371 515.611C398.804 515.611 409.697 504.722 409.697 491.28V174.956C417.524 170.871 428.232 163.593 438.737 151.014C457.688 128.395 474.913 89.3759 474.837 25.2428C474.833 23.3339 474.817 21.4328 474.795 19.5534C474.687 10.8548 467.552 3.89401 458.861 4.00422C450.173 4.11246 443.215 11.2504 443.323 19.943C443.343 21.7634 443.362 23.5366 443.362 25.2428C443.286 84.0151 428.067 114.584 414.579 130.828C407.778 138.969 401.231 143.626 396.596 146.253C394.552 147.416 392.912 148.154 391.779 148.613H321.215C317.066 146.93 305.754 141.37 294.645 125.975C282.288 108.755 269.662 78.6051 269.623 25.2428C269.619 23.4972 269.635 21.7575 269.662 20.0237C269.816 11.3291 262.897 4.15969 254.206 4.00619C245.514 3.84875 238.347 10.7761 238.194 19.4707C238.155 21.4407 238.145 23.3654 238.145 25.2428C238.072 89.3759 255.297 128.393 274.248 151.012C284.749 163.593 295.457 170.873 303.285 174.958Z" fill="white" stroke="black" stroke-width="8"/>
<path d="M356.494 137.397C380.94 137.397 400.758 117.572 400.758 93.1168C400.758 68.6617 380.94 48.8369 356.494 48.8369C332.048 48.8369 312.23 68.6617 312.23 93.1168C312.23 117.572 332.048 137.397 356.494 137.397Z" fill="white" stroke="black" stroke-width="8"/>
</svg>
