<svg width="15" height="19" viewBox="0 0 15 19" fill="none" xmlns="http://www.w3.org/2000/svg">
<path d="M13.0725 6.5318L12.7779 15.289C12.7528 16.039 12.4311 16.7499 11.881 17.2708C11.331 17.7917 10.5959 18.0815 9.83174 18.0789H4.23402C3.47039 18.0815 2.73571 17.7921 2.18573 17.2718C1.63575 16.7516 1.3137 16.0414 1.28786 15.2919L0.993239 6.5318C0.986793 6.33997 1.05821 6.15347 1.19178 6.01335C1.32535 5.87322 1.51013 5.79094 1.70547 5.78461C1.90082 5.77828 2.09072 5.84842 2.23341 5.97959C2.37609 6.11076 2.45988 6.29223 2.46632 6.48406L2.76094 15.2435C2.77561 15.6174 2.93726 15.9712 3.21194 16.2306C3.48663 16.4899 3.85297 16.6347 4.23402 16.6344H9.83174C10.2133 16.6346 10.58 16.4895 10.8548 16.2295C11.1296 15.9695 11.2909 15.615 11.3048 15.2406L11.5994 6.48406C11.6059 6.29223 11.6897 6.11076 11.8324 5.97959C11.975 5.84842 12.1649 5.77828 12.3603 5.78461C12.5556 5.79094 12.7404 5.87322 12.874 6.01335C13.0075 6.15347 13.079 6.33997 13.0725 6.5318ZM14.047 3.61755C14.047 3.80939 13.9694 3.99337 13.8312 4.12901C13.6931 4.26466 13.5058 4.34087 13.3104 4.34087H0.756073C0.56073 4.34087 0.373387 4.26466 0.235259 4.12901C0.0971307 3.99337 0.0195312 3.80939 0.0195312 3.61755C0.0195312 3.42571 0.0971307 3.24174 0.235259 3.10609C0.373387 2.97044 0.56073 2.89423 0.756073 2.89423H3.03935C3.27272 2.89485 3.49798 2.81018 3.67129 2.65669C3.8446 2.50321 3.95356 2.29189 3.97697 2.06386C4.03132 1.52896 4.28651 1.03308 4.69281 0.672853C5.09911 0.312624 5.62742 0.113843 6.17481 0.115242H7.89095C8.43834 0.113843 8.96665 0.312624 9.37295 0.672853C9.77925 1.03308 10.0344 1.52896 10.0888 2.06386C10.1122 2.29189 10.2212 2.50321 10.3945 2.65669C10.5678 2.81018 10.793 2.89485 11.0264 2.89423H13.3097C13.505 2.89423 13.6924 2.97044 13.8305 3.10609C13.9686 3.24174 14.0462 3.42571 14.0462 3.61755H14.047ZM5.2556 2.89423H8.81163C8.71484 2.67705 8.65154 2.44692 8.62381 2.21142C8.60556 2.03313 8.52057 1.86783 8.38531 1.74756C8.25006 1.62729 8.07415 1.56061 7.89169 1.56043H6.17554C5.99308 1.56061 5.81718 1.62729 5.68192 1.74756C5.54666 1.86783 5.46167 2.03313 5.44342 2.21142C5.41546 2.44696 5.35264 2.67709 5.2556 2.89423ZM5.9973 13.8532V7.69417C5.9973 7.50234 5.9197 7.31836 5.78157 7.18271C5.64344 7.04706 5.4561 6.97086 5.26076 6.97086C5.06542 6.97086 4.87807 7.04706 4.73995 7.18271C4.60182 7.31836 4.52422 7.50234 4.52422 7.69417V13.8561C4.52422 14.048 4.60182 14.2319 4.73995 14.3676C4.87807 14.5032 5.06542 14.5794 5.26076 14.5794C5.4561 14.5794 5.64344 14.5032 5.78157 14.3676C5.9197 14.2319 5.9973 14.048 5.9973 13.8561V13.8532ZM9.54301 13.8532V7.69417C9.54301 7.50234 9.46541 7.31836 9.32728 7.18271C9.18916 7.04706 9.00181 6.97086 8.80647 6.97086C8.61113 6.97086 8.42379 7.04706 8.28566 7.18271C8.14753 7.31836 8.06993 7.50234 8.06993 7.69417V13.8561C8.06993 14.048 8.14753 14.2319 8.28566 14.3676C8.42379 14.5032 8.61113 14.5794 8.80647 14.5794C9.00181 14.5794 9.18916 14.5032 9.32728 14.3676C9.46541 14.2319 9.54301 14.048 9.54301 13.8561V13.8532Z" fill="white"/>
</svg>
