<svg width="30" height="30" viewBox="0 0 30 30" fill="none" xmlns="http://www.w3.org/2000/svg">
<path fill-rule="evenodd" clip-rule="evenodd" d="M3.83217 29.5005H26.1716C28.0307 29.5005 29.5011 27.99 29.5011 26.1664V12.4665C29.5011 11.4121 29.0024 10.4199 28.1564 9.79087L26.6644 11.7976L28.1564 9.79087L16.8231 1.36455C15.6382 0.483636 14.0152 0.486856 12.8338 1.37246L14.3338 3.37323L12.8338 1.37246L1.86753 9.5937C1.00667 10.2391 0.5 11.2522 0.5 12.3281V26.1664C0.5 28.0003 1.98327 29.5005 3.83217 29.5005ZM12.1149 26.9999C11.2088 26.2004 10.6373 25.0304 10.6373 23.727V22.636C10.6373 20.2261 12.591 18.2724 15.0009 18.2724C17.4109 18.2724 19.3646 20.2261 19.3646 22.636V23.727C19.3646 25.0304 18.7931 26.2004 17.887 26.9999H26.1716C26.6319 26.9999 27.0006 26.6268 27.0006 26.1664V12.4665C27.0006 12.2029 26.8759 11.9548 26.6644 11.7976L15.3311 3.37125C15.0349 3.15102 14.6291 3.15182 14.3338 3.37323L3.36747 11.5945C3.1365 11.7676 3.00057 12.0394 3.00057 12.3281V26.1664C3.00057 26.6268 3.37182 26.9999 3.83217 26.9999H12.1149Z" fill="black"/>
</svg>
