<svg width="512" height="388" viewBox="0 0 512 388" fill="none" xmlns="http://www.w3.org/2000/svg">
<path d="M105.054 259.243C69.689 259.243 40.916 288.012 40.916 323.382C40.916 358.751 69.69 387.52 105.054 387.52C140.418 387.52 169.192 358.745 169.192 323.382C169.192 288.018 140.418 259.243 105.054 259.243ZM105.054 354.351C87.98 354.351 74.091 340.462 74.091 323.388C74.091 306.314 87.98 292.419 105.054 292.419C122.128 292.419 136.017 306.314 136.017 323.388C136.017 340.462 122.128 354.351 105.054 354.351ZM391.464 259.243C356.094 259.243 327.326 288.012 327.326 323.382C327.326 358.751 356.1 387.52 391.464 387.52C426.829 387.52 455.602 358.745 455.602 323.382C455.603 288.018 426.834 259.243 391.464 259.243ZM391.464 354.351C374.39 354.351 360.501 340.462 360.501 323.388C360.501 306.314 374.39 292.419 391.464 292.419C408.538 292.419 422.433 306.314 422.433 323.388C422.433 340.462 408.538 354.351 391.464 354.351Z" fill="white"/>
<path d="M63.032 82.8635C59.9856 82.8635 56.998 83.7025 54.3969 85.2883C51.7957 86.8741 49.6815 89.1455 48.286 91.8535L1.841 181.98C0.630547 184.329 -0.000665695 186.934 5.2683e-07 189.577V323.383C5.2683e-07 332.545 7.426 339.97 16.587 339.97H56.95V306.795H33.175V193.602L73.145 116.039H199.602V82.8635H63.032ZM154.263 306.795H343.36V339.97H154.263V306.795Z" fill="white"/>
<path d="M495.413 0.478516H199.603C190.441 0.478516 183.016 7.90452 183.016 17.0655V323.381H216.191V33.6535H478.826V306.794H439.016V339.969H495.413C504.575 339.969 512 332.543 512 323.382V17.0665C512 7.90452 504.574 0.478516 495.413 0.478516Z" fill="white"/>
<path d="M16.587 173.542H199.602V206.717H16.587V173.542ZM428.742 101.702C422.654 94.8455 412.166 94.2315 405.326 100.32L323.096 173.36L290.474 140.318C284.038 133.799 273.533 133.733 267.019 140.169C260.5 146.605 260.434 157.11 266.87 163.629L310.545 207.862C312.087 209.427 313.926 210.671 315.953 211.518C317.981 212.366 320.157 212.802 322.355 212.799C326.412 212.804 330.329 211.313 333.358 208.614L427.354 125.118C434.205 119.036 434.824 108.552 428.742 101.702Z" fill="white"/>
</svg>
