<svg width="28" height="29" viewBox="0 0 28 29" fill="none" xmlns="http://www.w3.org/2000/svg">
<path d="M15.1739 7.3537H12.415V12.8976H6.89724V15.6695H12.415V21.2134H15.1739V15.6695H20.6917V12.8976H15.1739V7.3537ZM13.7945 0.423828C6.18682 0.423828 0 6.63992 0 14.2836C0 21.9272 6.18682 28.1433 13.7945 28.1433C21.4021 28.1433 27.5889 21.9272 27.5889 14.2836C27.5889 6.63992 21.4021 0.423828 13.7945 0.423828ZM13.7945 25.3714C7.71111 25.3714 2.75889 20.3957 2.75889 14.2836C2.75889 8.17142 7.71111 3.19578 13.7945 3.19578C19.8778 3.19578 24.83 8.17142 24.83 14.2836C24.83 20.3957 19.8778 25.3714 13.7945 25.3714Z" fill="black"/>
</svg>
