<svg width="22" height="22" viewBox="0 0 22 22" fill="none" xmlns="http://www.w3.org/2000/svg">
<path fill-rule="evenodd" clip-rule="evenodd" d="M10.8887 1.37305H12.2824C12.6531 1.37305 12.9536 1.66814 12.9536 2.03215C12.9536 2.39615 12.6531 2.69125 12.2824 2.69125H10.9401C8.81192 2.69125 7.2833 2.69264 6.11999 2.84624C4.97599 2.99729 4.2863 3.28456 3.77654 3.78518C3.09666 4.45285 2.80798 5.42879 2.71108 7.33776C2.69263 7.70132 2.37756 7.98135 2.00735 7.96323C1.63715 7.94511 1.352 7.63569 1.37045 7.27213C1.46924 5.32591 1.76453 3.89685 2.82739 2.85307C3.62812 2.06671 4.64829 1.7105 5.94114 1.5398C7.20422 1.37303 8.82307 1.37304 10.8887 1.37305ZM19.8888 8.84285C20.2594 8.84285 20.5599 9.13795 20.5599 9.50195V10.8706C20.5599 12.8992 20.5599 14.489 20.3902 15.7294C20.2163 16.999 19.8536 18.0009 19.0529 18.7873C18.2521 19.5736 17.2319 19.9298 15.9391 20.1005C14.676 20.2672 13.0572 20.2672 10.9915 20.2672H10.8887C8.82307 20.2672 7.20422 20.2672 5.94114 20.1005C4.64829 19.9298 3.62812 19.5736 2.82739 18.7873C2.02666 18.0009 1.66393 16.999 1.49011 15.7294C1.32029 14.489 1.3203 12.8992 1.32031 10.8706V10.8201C1.32031 10.4561 1.6208 10.161 1.99146 10.161C2.36212 10.161 2.66261 10.4561 2.66261 10.8201C2.66261 12.9101 2.66403 14.4113 2.82044 15.5537C2.97425 16.6772 3.26677 17.3545 3.77654 17.8551C4.2863 18.3558 4.97599 18.643 6.11999 18.794C7.2833 18.9476 8.81192 18.949 10.9401 18.949C13.0683 18.949 14.5969 18.9476 15.7602 18.794C16.9042 18.643 17.5939 18.3558 18.1037 17.8551C18.6135 17.3545 18.906 16.6772 19.0598 15.5537C19.2162 14.4113 19.2176 12.9101 19.2176 10.8201V9.50195C19.2176 9.13795 19.5181 8.84285 19.8888 8.84285Z" fill="white"/>
<path fill-rule="evenodd" clip-rule="evenodd" d="M15.2032 2.27462C16.4273 1.07252 18.4119 1.07252 19.636 2.27462C20.8601 3.47672 20.8601 5.4257 19.636 6.6278L16.3865 9.81893C16.1243 10.0763 15.6995 10.0763 15.4374 9.81893C15.1753 9.56153 15.1753 9.14427 15.4374 8.88684L17.2923 7.06511C16.8307 6.87011 16.2929 6.55749 15.7838 6.05762C15.2748 5.55776 14.9565 5.02957 14.7579 4.57615L10.234 9.01883C9.86128 9.38489 9.71506 9.53007 9.59085 9.68649C9.43747 9.87957 9.30593 10.0886 9.19863 10.3097C9.11171 10.4888 9.04488 10.6821 8.87818 11.1732L8.4917 12.3118L9.41528 13.2188L10.5748 12.8393C11.0748 12.6756 11.2716 12.6099 11.454 12.5246C11.6791 12.4192 11.892 12.29 12.0887 12.1394C12.2479 12.0174 12.3957 11.8738 12.7684 11.5078C13.0305 11.2504 13.4555 11.2504 13.7176 11.5078C13.9797 11.7652 13.9797 12.1825 13.7176 12.4399L13.6868 12.4702C13.3546 12.7965 13.1464 13.0009 12.9142 13.1788C12.6406 13.3884 12.3446 13.568 12.0314 13.7146C11.7656 13.839 11.4863 13.9304 11.0405 14.0763L8.44136 14.9271C7.96149 15.0842 7.43244 14.9616 7.07477 14.6103C6.7171 14.2591 6.5922 13.7395 6.75216 13.2682L7.61854 10.7157C7.76711 10.278 7.86017 10.0037 7.98689 9.74265C8.13615 9.43507 8.31908 9.14436 8.53245 8.87573C8.71361 8.64764 8.92176 8.44325 9.25402 8.11697L15.2032 2.27462ZM15.8154 3.53771C15.8357 3.62195 15.864 3.72232 15.9036 3.83427C16.0318 4.19726 16.2745 4.67532 16.7329 5.12551C17.1914 5.5757 17.6782 5.81403 18.0478 5.93997C18.1618 5.97881 18.264 6.00672 18.3498 6.02667L18.6868 5.6957C19.3867 5.00839 19.3867 3.89403 18.6868 3.20673C17.9869 2.51942 16.8522 2.51942 16.1524 3.20673L15.8154 3.53771Z" fill="white"/>
</svg>
