<svg width="432" height="755" viewBox="0 0 432 755" fill="none" xmlns="http://www.w3.org/2000/svg">
<mask id="path-1-inside-1_171_105" fill="white">
<path fill-rule="evenodd" clip-rule="evenodd" d="M60 0C26.8629 0 0 26.8629 0 60V695C0 728.137 26.8629 755 60 755H372C405.137 755 432 728.137 432 695V60C432 26.8629 405.137 0 372 0H60ZM73 81C60.8497 81 51 90.8497 51 103V624C51 636.15 60.8497 646 73 646H357C369.15 646 379 636.15 379 624V103C379 90.8497 369.15 81 357 81H73Z"/>
</mask>
<path fill-rule="evenodd" clip-rule="evenodd" d="M60 0C26.8629 0 0 26.8629 0 60V695C0 728.137 26.8629 755 60 755H372C405.137 755 432 728.137 432 695V60C432 26.8629 405.137 0 372 0H60ZM73 81C60.8497 81 51 90.8497 51 103V624C51 636.15 60.8497 646 73 646H357C369.15 646 379 636.15 379 624V103C379 90.8497 369.15 81 357 81H73Z" fill="white"/>
<path d="M6.5 60C6.5 30.4528 30.4528 6.5 60 6.5V-6.5C23.2731 -6.5 -6.5 23.2731 -6.5 60H6.5ZM6.5 695V60H-6.5V695H6.5ZM60 748.5C30.4528 748.5 6.5 724.547 6.5 695H-6.5C-6.5 731.727 23.2731 761.5 60 761.5V748.5ZM372 748.5H60V761.5H372V748.5ZM425.5 695C425.5 724.547 401.547 748.5 372 748.5V761.5C408.727 761.5 438.5 731.727 438.5 695H425.5ZM425.5 60V695H438.5V60H425.5ZM372 6.5C401.547 6.5 425.5 30.4528 425.5 60H438.5C438.5 23.2731 408.727 -6.5 372 -6.5V6.5ZM60 6.5H372V-6.5H60V6.5ZM57.5 103C57.5 94.4396 64.4396 87.5 73 87.5V74.5C57.2599 74.5 44.5 87.2599 44.5 103H57.5ZM57.5 624V103H44.5V624H57.5ZM73 639.5C64.4396 639.5 57.5 632.56 57.5 624H44.5C44.5 639.74 57.2599 652.5 73 652.5V639.5ZM357 639.5H73V652.5H357V639.5ZM372.5 624C372.5 632.56 365.56 639.5 357 639.5V652.5C372.74 652.5 385.5 639.74 385.5 624H372.5ZM372.5 103V624H385.5V103H372.5ZM357 87.5C365.56 87.5 372.5 94.4396 372.5 103H385.5C385.5 87.2599 372.74 74.5 357 74.5V87.5ZM73 87.5H357V74.5H73V87.5Z" fill="black" mask="url(#path-1-inside-1_171_105)"/>
<circle cx="216" cy="697" r="33" fill="#D9D9D9" stroke="black" stroke-width="6"/>
<path d="M238.802 199.27C232.548 199.271 226.357 200.526 220.596 202.961C223.179 194.884 229.638 182.228 245.22 178.899C246.124 178.705 246.915 178.161 247.418 177.384C247.921 176.608 248.095 175.664 247.902 174.759C247.709 173.855 247.164 173.064 246.388 172.561C245.612 172.058 244.667 171.884 243.763 172.077C222.594 176.605 215.336 195.139 213.025 204.167C206.556 200.943 199.426 199.266 192.198 199.27C166.159 199.27 145 220.463 145 246.502C145 269.648 164.067 339.328 192.198 339.328C200.389 339.328 208.372 337.202 215.483 333.124C222.628 337.202 230.611 339.328 238.802 339.328C266.933 339.328 286 269.648 286 246.502C286 220.463 264.806 199.27 238.802 199.27ZM200.727 223.294C191.106 221.394 183.361 222.656 177.721 227.023C168.407 234.235 167.501 247.816 167.494 247.952C167.438 248.873 167.02 249.735 166.331 250.349C165.642 250.963 164.738 251.279 163.816 251.229C162.895 251.176 162.032 250.761 161.417 250.074C160.801 249.386 160.483 248.483 160.533 247.562C160.568 246.882 161.578 230.75 173.406 221.547C180.712 215.865 190.361 214.15 202.073 216.451C202.98 216.629 203.779 217.161 204.295 217.929C204.81 218.697 205 219.638 204.821 220.545C204.643 221.452 204.111 222.252 203.344 222.767C202.576 223.283 201.635 223.472 200.727 223.294Z" fill="white"/>
</svg>
