<svg width="22" height="22" viewBox="0 0 22 22" fill="none" xmlns="http://www.w3.org/2000/svg">
<path d="M10.7678 14.4405L6.58194 18.6264C6.07514 19.1156 5.3983 19.3889 4.69397 19.3889C3.98964 19.3889 3.31279 19.1156 2.80599 18.6264C2.55743 18.3789 2.36021 18.0846 2.22563 17.7606C2.09106 17.4367 2.02178 17.0893 2.02178 16.7385C2.02178 16.3876 2.09106 16.0403 2.22563 15.7163C2.36021 15.3923 2.55743 15.0981 2.80599 14.8505L6.9919 10.6646C7.19505 10.4614 7.30918 10.1859 7.30918 9.89861C7.30918 9.61131 7.19505 9.33578 6.9919 9.13263C6.78875 8.92948 6.51322 8.81535 6.22592 8.81535C5.93863 8.81535 5.66309 8.92948 5.45994 9.13263L1.27404 13.3293C0.430767 14.2472 -0.025298 15.4554 0.00108395 16.7015C0.0274659 17.9477 0.534255 19.1355 1.41562 20.0168C2.29698 20.8982 3.48476 21.405 4.73091 21.4313C5.97707 21.4577 7.18524 21.0017 8.10311 20.1584L12.2998 15.9725C12.503 15.7693 12.6171 15.4938 12.6171 15.2065C12.6171 14.9192 12.503 14.6437 12.2998 14.4405C12.0967 14.2374 11.8211 14.1233 11.5338 14.1233C11.2465 14.1233 10.971 14.2374 10.7678 14.4405ZM20.0243 1.40812C19.1168 0.506213 17.8893 0 16.6098 0C15.3303 0 14.1028 0.506213 13.1952 1.40812L8.99855 5.59403C8.89796 5.69462 8.81817 5.81403 8.76373 5.94546C8.70929 6.07689 8.68127 6.21775 8.68127 6.36C8.68127 6.50226 8.70929 6.64312 8.76373 6.77455C8.81817 6.90597 8.89796 7.02539 8.99855 7.12598C9.09914 7.22657 9.21855 7.30636 9.34998 7.3608C9.48141 7.41524 9.62227 7.44326 9.76453 7.44326C9.90678 7.44326 10.0476 7.41524 10.1791 7.3608C10.3105 7.30636 10.4299 7.22657 10.5305 7.12598L14.7164 2.94007C15.2232 2.45095 15.9001 2.17761 16.6044 2.17761C17.3087 2.17761 17.9856 2.45095 18.4924 2.94007C18.7409 3.18765 18.9381 3.48188 19.0727 3.80586C19.2073 4.12985 19.2766 4.47722 19.2766 4.82805C19.2766 5.17887 19.2073 5.52624 19.0727 5.85023C18.9381 6.17422 18.7409 6.46844 18.4924 6.71602L14.3065 10.9019C14.2053 11.0022 14.1251 11.1215 14.0703 11.253C14.0155 11.3845 13.9873 11.5255 13.9873 11.6679C13.9873 11.8103 14.0155 11.9513 14.0703 12.0828C14.1251 12.2143 14.2053 12.3336 14.3065 12.4339C14.4067 12.535 14.5261 12.6153 14.6575 12.67C14.789 12.7248 14.93 12.753 15.0724 12.753C15.2148 12.753 15.3559 12.7248 15.4873 12.67C15.6188 12.6153 15.7381 12.535 15.8384 12.4339L20.0243 8.23719C20.9262 7.32965 21.4324 6.10213 21.4324 4.82265C21.4324 3.54317 20.9262 2.31566 20.0243 1.40812ZM7.22925 14.2032C7.33005 14.3032 7.44961 14.3823 7.58105 14.436C7.71249 14.4897 7.85324 14.5169 7.99522 14.516C8.13721 14.5169 8.27795 14.4897 8.4094 14.436C8.54084 14.3823 8.6604 14.3032 8.7612 14.2032L14.0691 8.89528C14.2723 8.69213 14.3864 8.4166 14.3864 8.1293C14.3864 7.84201 14.2723 7.56648 14.0691 7.36333C13.866 7.16018 13.5904 7.04605 13.3031 7.04605C13.0158 7.04605 12.7403 7.16018 12.5371 7.36333L7.22925 12.6712C7.12813 12.7715 7.04787 12.8908 6.9931 13.0223C6.93833 13.1538 6.91013 13.2948 6.91013 13.4372C6.91013 13.5796 6.93833 13.7206 6.9931 13.8521C7.04787 13.9836 7.12813 14.1029 7.22925 14.2032Z" fill="black"/>
</svg>
