<svg width="331" height="477" viewBox="0 0 331 477" fill="none" xmlns="http://www.w3.org/2000/svg">
<path d="M318.9 466.7H11.4V476.7H318.9V466.7ZM320.3 465.3C320.3 466.088 319.69 466.7 318.9 466.7V476.7C325.11 476.7 330.3 471.712 330.3 465.3H320.3ZM320.3 11.4V465.3H330.3V11.4H320.3ZM318.9 10C319.639 10 320.3 10.6614 320.3 11.4H330.3C330.3 5.13855 325.161 0 318.9 0V10ZM11.4 10H318.9V0H11.4V10ZM10 11.4C10 10.6614 10.6614 10 11.4 10V0C5.13857 0 0 5.13858 0 11.4H10ZM10 465.3V11.4H0V465.3H10ZM11.4 466.7C10.6614 466.7 10 466.039 10 465.3H0C0 471.561 5.13857 476.7 11.4 476.7V466.7Z" fill="black"/>
<path d="M276.102 308.7H289.702V432H276.102V308.7Z" fill="white" stroke="black" stroke-width="3"/>
<path d="M241.902 321.3H258.502V433.4H241.902V321.3Z" fill="black"/>
<path d="M207.703 341.2H221.303V431.9H207.703V341.2Z" fill="white" stroke="black" stroke-width="3"/>
<path d="M169.7 362.9H186.3V433.4H169.7V362.9ZM94.6 372L91 370.7L122.3 282.9L190.2 265L214.6 168.6L266.9 145.5L278.7 70.5996L282.4 71.1996L270.4 148.2L217.8 171.4L193.3 268.1L125.3 286.1L94.6 372Z" fill="black"/>
<path d="M199.883 276.336C205.253 271.963 206.113 263.987 201.637 258.516C197.166 253.052 189.186 252.283 183.811 256.771C178.465 261.134 177.579 269.207 182.074 274.591C186.449 279.95 194.416 280.807 199.883 276.336Z" fill="white" stroke="black" stroke-width="5"/>
<path d="M199.4 275.9C194.2 280.1 186.6 279.4 182.4 274.2C178.2 269 178.9 261.4 184.1 257.2C189.3 253 196.9 253.7 201.1 258.9C205.4 264 204.6 271.7 199.4 275.9ZM186.5 260.1C183 263 182.4 268.2 185.3 271.7C188.2 275.2 193.4 275.8 196.9 272.9C200.4 270 201 264.8 198.1 261.3C195.3 257.8 190.1 257.2 186.5 260.1Z" fill="#FDFAF5"/>
<path d="M226.336 162.516L226.327 162.505L226.318 162.495C221.874 157.187 213.914 156.259 208.51 160.771C203.15 165.146 202.294 173.114 206.764 178.58C211.137 183.949 219.112 184.81 224.582 180.336C229.952 175.963 230.812 167.987 226.336 162.516Z" fill="white" stroke="black" stroke-width="5"/>
<path d="M224.103 179.9C218.903 184.1 211.303 183.4 207.103 178.2C202.903 173 203.603 165.4 208.803 161.2C214.003 157 221.603 157.7 225.803 162.9C230.103 168.1 229.303 175.7 224.103 179.9ZM211.203 164.2C207.703 167.1 207.103 172.3 210.003 175.8C212.903 179.3 218.103 179.9 221.603 177C225.103 174.1 225.703 168.9 222.803 165.4C220.003 161.8 214.803 161.3 211.203 164.2Z" fill="#FDFAF5"/>
<path d="M275.119 141.023L275.119 141.023L275.127 141.033C278.377 145.005 277.741 150.774 273.87 153.925L273.868 153.926C269.897 157.176 264.128 156.54 260.977 152.669L260.975 152.667C257.726 148.695 258.361 142.927 262.233 139.776L262.233 139.776L262.243 139.767C266.12 136.521 271.975 137.07 275.119 141.023Z" fill="white" stroke="black" stroke-width="2"/>
<path d="M134.037 277.317L134.028 277.306L134.019 277.295C129.575 271.987 121.614 271.06 116.21 275.572C110.829 279.965 110.114 288.035 114.463 293.378C118.835 298.75 126.811 299.611 132.283 295.137C137.652 290.764 138.512 282.787 134.037 277.317Z" fill="white" stroke="black" stroke-width="5"/>
<path d="M131.803 294.7C126.603 298.9 119.003 298.2 114.803 293C110.603 287.8 111.303 280.2 116.503 276C121.703 271.8 129.303 272.5 133.503 277.7C137.803 282.9 137.003 290.5 131.803 294.7ZM118.903 279C115.403 281.9 114.803 287.1 117.703 290.6C120.603 294.1 125.803 294.7 129.303 291.8C132.803 288.9 133.403 283.7 130.503 280.2C127.703 276.6 122.503 276.1 118.903 279Z" fill="#FDFAF5"/>
<path d="M139.5 139.7V157.9H40.5V139.7H139.5Z" fill="white" stroke="black" stroke-width="3"/>
<path d="M139.6 122.4H40.4C39.6 122.4 39 121.8 39 121V102.6C39 101.8 39.6 101.2 40.4 101.2H139.6C140.4 101.2 141 101.8 141 102.6V121C141 121.8 140.4 122.4 139.6 122.4Z" fill="black"/>
</svg>
