<svg width="28" height="21" viewBox="0 0 28 21" fill="none" xmlns="http://www.w3.org/2000/svg">
<path fill-rule="evenodd" clip-rule="evenodd" d="M13.9527 7.98326V6.55956C13.9527 5.3418 12.0439 5.3418 12.0439 6.55956V7.9414C11.5445 7.97178 11.0391 8.07306 10.5726 8.33809C9.01077 9.22499 7.39565 12.7702 6.67552 15.1207C6.26432 15.2861 5.83589 15.3874 5.38856 15.3904C4.74372 15.3962 4.20726 15.1966 3.76161 14.7233C3.59922 14.5515 3.47262 14.3624 3.39328 14.1764C3.73393 14.224 4.09855 14.1855 4.40307 14.0184C5.12589 13.6197 4.98072 12.8384 4.27377 12.5032C3.7157 12.2375 3.04757 12.2915 2.65189 12.8016C2.56478 12.7341 2.47734 12.6605 2.39227 12.5822C2.06884 12.2848 1.77815 11.9286 1.58673 11.5856C1.48578 11.4056 1.41387 11.2311 1.37201 11.069C1.72447 11.3702 2.17046 11.568 2.59821 11.6588C3.43413 11.8364 4.60935 11.6159 4.54115 10.5106C4.51144 10.0194 4.18768 9.59872 3.76263 9.36915C3.38011 9.16287 2.85513 9.07712 2.35277 9.10581C2.08166 9.12101 1.80955 9.1703 1.56141 9.25132C1.68396 8.37117 2.74068 7.73883 3.4105 7.35092C3.84163 7.10075 4.31529 6.85666 4.80516 6.6156C4.97735 7.23242 5.2714 7.82087 5.56985 8.34079C6.73056 10.3681 7.10969 9.24896 9.52158 8.06192C11.9314 6.87522 10.9507 5.97313 10.6867 5.21891C10.1289 3.6237 21.9061 3.6237 21.3491 5.21891C21.0851 5.9738 20.1033 6.87522 22.5148 8.06192C24.926 9.24896 25.3038 10.3675 26.4662 8.34079C27.5162 6.50757 28.5155 3.82728 24.3167 2.0474C20.847 0.577783 10.8302 0.573394 7.35817 2.2081C5.26094 3.19392 4.62691 4.42721 4.65189 5.63282C4.04554 5.92856 3.45608 6.22465 2.93312 6.52749C2.19409 6.9549 1.56715 7.40595 1.16809 7.89987C0.752831 8.41371 0.583351 8.96739 0.599894 9.48596C0.604283 9.61898 0.620826 9.74862 0.64851 9.87523C0.484094 10.1065 0.396653 10.3789 0.381123 10.676C0.359853 11.1008 0.492196 11.5761 0.755532 12.0474C0.997936 12.4823 1.35547 12.9228 1.74743 13.2831C1.93919 13.4596 2.1421 13.6197 2.34804 13.7534C2.34804 14.3654 2.6556 14.9384 3.06816 15.3756C3.69274 16.0396 4.49119 16.3486 5.39598 16.3415C5.72853 16.3394 6.06479 16.2935 6.38653 16.2139L6.3575 16.3607C5.9051 18.7682 6.60564 20.513 9.2103 20.7442C10.0331 20.8175 22.002 20.8175 22.8248 20.7442C25.4294 20.513 26.13 18.7682 25.6779 16.3607C25.291 14.3023 23.3383 9.40291 21.4625 8.33809C20.9959 8.07306 20.4909 7.97178 19.9909 7.9414V6.55956C19.9909 5.3418 18.082 5.3418 18.082 6.55956V7.98326C16.9173 8.01196 15.1181 8.01196 13.9527 7.98326ZM1.81462 10.1679C1.85378 10.2169 1.89733 10.2638 1.94324 10.3067C2.17079 10.5201 2.48612 10.6612 2.79639 10.7274C3.59314 10.8965 3.87674 10.5109 3.31124 10.2078C3.08639 10.0862 2.74676 10.0376 2.40442 10.0572C2.1924 10.0687 1.98713 10.1062 1.81462 10.1679ZM16.0175 13.2179C16.5131 13.2179 16.9146 13.6197 16.9146 14.1153C16.9146 14.6109 16.5131 15.013 16.0175 15.013C15.5216 15.013 15.1202 14.6109 15.1202 14.1153C15.1202 13.6197 15.5216 13.2179 16.0175 13.2179ZM13.4649 13.33C13.9605 13.33 14.3622 13.7317 14.3622 14.2274C14.3622 14.7233 13.9605 15.1251 13.4649 15.1251C12.9696 15.1251 12.5675 14.7233 12.5675 14.2274C12.5675 13.7317 12.9696 13.33 13.4649 13.33ZM13.4649 11.0586C13.9605 11.0586 14.3622 11.46 14.3622 11.9556C14.3622 12.4509 13.9605 12.8533 13.4649 12.8533C12.9696 12.8533 12.5675 12.4509 12.5675 11.9556C12.5675 11.46 12.9696 11.0586 13.4649 11.0586ZM13.4649 15.6028C13.9605 15.6028 14.3622 16.0042 14.3622 16.4995C14.3622 16.9951 13.9605 17.3972 13.4649 17.3972C12.9696 17.3972 12.5675 16.9951 12.5675 16.4995C12.5675 16.0042 12.9696 15.6028 13.4649 15.6028ZM18.5702 13.1055C19.0658 13.1055 19.4676 13.5076 19.4676 14.0032C19.4676 14.4988 19.0658 14.9009 18.5702 14.9009C18.0743 14.9009 17.6725 14.4988 17.6725 14.0032C17.6725 13.5076 18.0743 13.1055 18.5702 13.1055ZM18.5702 10.834C19.0658 10.834 19.4676 11.2358 19.4676 11.7314C19.4676 12.227 19.0658 12.6284 18.5702 12.6284C18.0743 12.6284 17.6725 12.227 17.6725 11.7314C17.6725 11.2358 18.0743 10.834 18.5702 10.834ZM16.0175 10.9461C16.5131 10.9461 16.9146 11.3479 16.9146 11.8435C16.9146 12.3384 16.5131 12.7405 16.0175 12.7405C15.5216 12.7405 15.1202 12.3384 15.1202 11.8435C15.1202 11.3479 15.5216 10.9461 16.0175 10.9461ZM16.0175 15.49C16.5131 15.49 16.9146 15.8921 16.9146 16.3871C16.9146 16.8827 16.5131 17.2844 16.0175 17.2844C15.5216 17.2844 15.1202 16.8827 15.1202 16.3871C15.1202 15.8921 15.5216 15.49 16.0175 15.49ZM18.5702 15.3783C19.0658 15.3783 19.4676 15.78 19.4676 16.2756C19.4676 16.7713 19.0658 17.1727 18.5702 17.1727C18.0743 17.1727 17.6725 16.7713 17.6725 16.2756C17.6725 15.78 18.0743 15.3783 18.5702 15.3783Z" fill="black"/>
</svg>
