<svg width="170" height="188" viewBox="0 0 170 188" fill="none" xmlns="http://www.w3.org/2000/svg">
<path d="M104.386 15.2095C103.982 15.2351 103.577 15.0474 103.301 14.7402C103.024 14.433 102.895 14.0217 102.944 13.6121L104.124 4.08887L14.0781 56.3453L29.7863 54.7666C29.8341 54.7615 29.8819 54.7598 29.9279 54.7598C30.329 54.7598 30.7147 54.9305 30.9861 55.2308C31.2898 55.567 31.4127 56.0295 31.3206 56.4733L28.9517 67.7953L120.531 14.863L104.386 15.2095Z" fill="white"/>
<path d="M127.406 12.9414C127.234 12.3253 126.674 11.9021 126.037 11.9021C126.027 11.9021 126.017 11.9021 126.007 11.9021L105.969 12.3304L107.298 1.59721C107.365 1.06132 107.121 0.533959 106.67 0.235292C106.219 -0.061668 105.639 -0.0787363 105.172 0.190917L6.9546 57.1885C6.37604 57.5247 6.1098 58.2193 6.3146 58.8559C6.52111 59.4942 7.14914 59.8969 7.80962 59.8338L28.1343 57.7909L25.5112 70.3281C25.3968 70.8777 25.6153 71.4426 26.0693 71.7719C26.3167 71.9511 26.6103 72.0416 26.9038 72.0416C27.1496 72.0416 27.3953 71.9784 27.6155 71.8504L126.747 14.5542C127.31 14.2317 127.58 13.5661 127.406 12.9414ZM31.3173 56.4734C31.4094 56.0296 31.2865 55.5688 30.9827 55.2309C30.7114 54.9288 30.3274 54.7599 29.9246 54.7599C29.8768 54.7599 29.829 54.7616 29.783 54.7667L14.0748 56.3454L104.12 4.08896L102.941 13.6121C102.89 14.0217 103.019 14.4348 103.298 14.7402C103.576 15.0457 103.979 15.2352 104.383 15.2096L120.528 14.8648L28.9484 67.7971L31.3173 56.4734Z" fill="black"/>
<path d="M25.5113 70.3304L28.131 57.8154L9.01805 59.7167L2.89453 168.324L29.0372 183.317L25.4823 70.6666C25.4771 70.554 25.4874 70.4413 25.5113 70.3304Z" fill="white"/>
<path d="M28.3296 70.7467L31.3128 56.4978C31.405 56.054 31.2821 55.5932 30.9783 55.2553C30.6762 54.9174 30.2308 54.7467 29.7785 54.7911L7.52361 57.0046C6.82558 57.0746 6.28457 57.6412 6.24361 58.3393L0.00231888 169.039C-0.0284011 169.576 0.248086 170.085 0.714006 170.353L29.828 187.051C30.0465 187.177 30.2922 187.239 30.5363 187.239C30.7906 187.239 31.0432 187.17 31.2685 187.036C31.7105 186.769 31.9733 186.286 31.9579 185.771L28.3296 70.7467ZM2.89513 168.324L9.01865 59.7165L28.1316 57.8153L25.5119 70.3303C25.488 70.4412 25.4794 70.5539 25.4829 70.6665L29.0378 183.317L2.89513 168.324Z" fill="black"/>
<path d="M1.42969 169.124L23.0924 160.64L26.9017 70.6201L30.5386 185.818L1.42969 169.124Z" fill="black"/>
<path d="M103.043 13.9688L103.125 25.3949L122.147 14.4125L103.043 13.9688Z" fill="black"/>
<path d="M28.3516 71.4268L31.8878 183.406L129.427 127.417L124.713 15.7314L28.3516 71.4268Z" fill="white"/>
<path d="M127.455 13.2639C127.434 12.7673 127.154 12.3167 126.719 12.0778C126.282 11.8389 125.753 11.844 125.323 12.0931L26.1912 69.3894C25.7372 69.6522 25.4642 70.142 25.4812 70.666L29.1181 185.864C29.1335 186.363 29.41 186.818 29.8469 187.061C30.0619 187.182 30.3009 187.242 30.5398 187.242C30.7838 187.242 31.0279 187.178 31.2481 187.052L131.593 129.454C132.054 129.189 132.329 128.691 132.307 128.16L127.455 13.2639ZM31.8863 183.407L28.3501 71.4271L124.712 15.7318L129.427 127.418L31.8863 183.407Z" fill="black"/>
<path d="M95.0047 41.9135C95.2915 43.1423 94.7317 44.6647 93.7572 45.3166C92.7827 45.9669 91.7587 45.4992 91.4737 44.2704C91.1869 43.0416 91.745 41.5193 92.7212 40.8673C93.6974 40.2171 94.7197 40.6847 95.0047 41.9135Z" fill="black"/>
<path d="M66.0282 59.5772C66.3149 60.806 65.7551 62.3283 64.7806 62.9786C63.8061 63.6288 62.7821 63.1612 62.4971 61.9324C62.2104 60.7036 62.7684 59.1812 63.7447 58.5293C64.7209 57.8808 65.7432 58.3484 66.0282 59.5772Z" fill="black"/>
<path d="M81.3403 83.9282C79.7327 83.9282 78.1523 83.5339 76.6129 82.7472C67.7416 78.2108 63.2838 61.8422 63.0995 61.1493C62.8964 60.3898 63.347 59.6116 64.1064 59.4085C64.8659 59.2071 65.6441 59.656 65.8472 60.4154C65.8899 60.5742 70.1634 76.2567 77.9099 80.2162C79.9511 81.259 82.0094 81.3614 84.1973 80.5251C89.4163 78.5351 92.9918 75.2054 94.8264 70.6315C99.3167 59.4358 92.2067 44.2243 92.1333 44.0724C91.7971 43.3624 92.0975 42.5142 92.8074 42.178C93.5157 41.8435 94.3639 42.1422 94.7018 42.8504C95.0193 43.5177 102.421 59.3215 97.4701 71.6811C95.3282 77.0264 91.2049 80.8954 85.2111 83.1824C83.9089 83.6807 82.6152 83.9282 81.3403 83.9282Z" fill="black"/>
<path d="M120.59 86.5396L122.976 173.924L166.612 148.872L162.183 63.0098L120.59 86.5396Z" fill="white"/>
<path d="M164.906 60.5656C164.88 60.0741 164.602 59.6304 164.17 59.3914C163.738 59.1542 163.214 59.1576 162.784 59.4L118.445 84.4845C117.988 84.744 117.709 85.2355 117.723 85.7611L120.196 176.382C120.21 176.882 120.486 177.337 120.921 177.583C121.138 177.704 121.377 177.766 121.618 177.766C121.862 177.766 122.106 177.703 122.326 177.576L168.785 150.903C169.249 150.637 169.524 150.131 169.497 149.596L164.906 60.5656ZM122.976 173.924L120.59 86.5394L162.182 63.0096L166.611 148.872L122.976 173.924Z" fill="black"/>
<path d="M117.752 85.4394L119.628 76.249L104.997 77.7765L99.7109 162.224L120.138 173.87L117.723 85.762C117.721 85.6545 117.73 85.5452 117.752 85.4394Z" fill="white"/>
<path d="M120.574 85.8486L122.805 74.9174C122.895 74.4736 122.769 74.0129 122.465 73.6783C122.162 73.3438 121.718 73.1697 121.264 73.2192L103.506 75.0727C102.815 75.1444 102.277 75.7059 102.234 76.3988L96.8192 162.932C96.7851 163.473 97.0633 163.988 97.5343 164.256L120.928 177.592C121.146 177.717 121.388 177.778 121.632 177.778C121.885 177.778 122.139 177.71 122.363 177.575C122.803 177.311 123.068 176.829 123.054 176.316L120.574 85.8486ZM99.712 162.225L104.998 77.7777L119.629 76.2503L117.753 85.4407C117.731 85.5465 117.722 85.6557 117.724 85.7632L120.139 173.872L99.712 162.225Z" fill="black"/>
<path d="M98.2422 163.018L121.62 176.344L119.601 102.58L115.555 156.501L98.2422 163.018Z" fill="black"/>
<path d="M145.344 61.4757C145.076 61.1702 144.951 60.7658 145.001 60.363L145.801 53.8486L110.164 74.3781L121.266 73.2193C121.315 73.2142 121.365 73.2108 121.414 73.2108C121.814 73.2108 122.196 73.378 122.467 73.6767C122.771 74.0129 122.897 74.4737 122.807 74.9174L121.165 82.9456L158.138 62.0287L146.402 61.957C145.997 61.957 145.612 61.7812 145.344 61.4757Z" fill="white"/>
<path d="M164.863 60.2809C164.7 59.6579 164.139 59.221 163.494 59.2159L148.018 59.122L148.97 51.3652C149.037 50.8293 148.793 50.3037 148.344 50.0067C147.895 49.7098 147.315 49.691 146.849 49.9606L102.943 75.2535C102.361 75.588 102.093 76.286 102.3 76.9243C102.506 77.5626 103.131 77.9756 103.8 77.9005L119.631 76.2484L117.752 85.4371C117.641 85.9833 117.858 86.5448 118.308 86.8724C118.556 87.0533 118.849 87.1438 119.144 87.1438C119.385 87.1438 119.627 87.0824 119.844 86.9595L164.183 61.8749C164.747 61.5592 165.025 60.9055 164.863 60.2809ZM121.167 82.9471L122.809 74.9189C122.899 74.4752 122.773 74.0144 122.469 73.6782C122.198 73.3795 121.814 73.2123 121.416 73.2123C121.367 73.2123 121.317 73.214 121.268 73.2208L110.166 74.3796L145.803 53.8501L145.002 60.3645C144.953 60.7673 145.077 61.1717 145.345 61.4772C145.613 61.781 145.999 61.9585 146.405 61.9602L158.142 62.0319L121.167 82.9471Z" fill="black"/>
<path d="M145.621 61.2334V69.9135L160.853 61.3256L145.621 61.2334Z" fill="black"/>
<path d="M155.705 73.4648C155.743 73.1695 155.727 72.8708 155.635 72.5978C155.343 71.741 154.47 71.4458 153.683 71.9424C152.896 72.4373 152.495 73.533 152.787 74.3915C152.877 74.656 153.026 74.8591 153.207 75.0093C154.139 78.0608 156.521 87.2341 153.616 93.2843C152.466 95.6787 150.652 97.2728 148.071 98.1568C144.996 99.2098 142.209 99.0801 139.789 97.7728C134.978 95.1753 132.756 88.695 132.261 87.0566C132.31 86.7426 132.297 86.4235 132.198 86.1316C131.906 85.2749 131.032 84.9813 130.245 85.4763C129.458 85.9712 129.057 87.0669 129.349 87.9254C129.433 88.1728 129.569 88.3674 129.735 88.5159C130.59 91.1049 133.138 97.4076 138.425 100.271C140.202 101.234 142.108 101.715 144.126 101.715C145.684 101.715 147.31 101.428 148.993 100.852C152.29 99.7235 154.71 97.5902 156.187 94.5131C159.829 86.9064 156.504 75.8678 155.705 73.4648Z" fill="black"/>
</svg>
