<svg width="24" height="24" viewBox="0 0 24 24" fill="none" xmlns="http://www.w3.org/2000/svg">
<path d="M20.3485 11.3177C18.107 9.1242 15.0716 7.89258 11.9072 7.89258C8.74284 7.89258 5.70744 9.1242 3.46591 11.3177C3.33016 11.451 3.25391 11.6318 3.25391 11.8203C3.25391 12.0088 3.33016 12.1896 3.46591 12.3229C3.60165 12.4562 3.78575 12.5311 3.97772 12.5311C4.16969 12.5311 4.35379 12.4562 4.48953 12.3229C6.45755 10.3923 9.1255 9.30784 11.9072 9.30784C14.6889 9.30784 17.3569 10.3923 19.3249 12.3229C19.3919 12.3893 19.4716 12.4419 19.5595 12.4779C19.6473 12.5138 19.7416 12.5323 19.8367 12.5323C19.9319 12.5323 20.0261 12.5138 20.1139 12.4779C20.2018 12.4419 20.2815 12.3893 20.3485 12.3229C20.4161 12.2571 20.4697 12.1788 20.5063 12.0925C20.5429 12.0063 20.5618 11.9138 20.5618 11.8203C20.5618 11.7268 20.5429 11.6343 20.5063 11.548C20.4697 11.4618 20.4161 11.3835 20.3485 11.3177ZM17.6741 15.4803C15.3489 16.9737 12.5183 17.5077 9.79509 16.9669C9.6039 16.9293 9.40536 16.9679 9.24313 17.0741C9.08091 17.1803 8.96829 17.3455 8.93005 17.5332C8.89181 17.721 8.93109 17.916 9.03924 18.0753C9.14739 18.2346 9.31556 18.3452 9.50674 18.3827C12.6048 18.9979 15.8249 18.3873 18.4671 16.6837C18.6296 16.5805 18.7437 16.418 18.7842 16.2322C18.8248 16.0463 18.7885 15.8522 18.6833 15.6926C18.5782 15.533 18.4128 15.421 18.2235 15.3812C18.0343 15.3414 17.8366 15.377 17.6741 15.4803ZM7.33694 16.1528C6.92498 15.9518 6.52541 15.7273 6.14031 15.4803C5.98203 15.3969 5.79776 15.3745 5.62358 15.4176C5.4494 15.4607 5.29787 15.566 5.19865 15.7131C5.09944 15.8601 5.05969 16.0382 5.0872 16.2125C5.11471 16.3868 5.20748 16.5448 5.34736 16.6554C5.78503 16.9437 6.2427 17.2015 6.717 17.427C6.81314 17.4745 6.91939 17.4987 7.02697 17.4978C7.18978 17.4969 7.34747 17.4419 7.47437 17.3417C7.60126 17.2415 7.6899 17.1021 7.72583 16.9462C7.76177 16.7902 7.7429 16.6269 7.67228 16.4829C7.60167 16.3388 7.48347 16.2225 7.33694 16.1528Z" fill="white"/>
<path d="M11.9093 16.0677C12.4796 16.0677 13.0371 15.9016 13.5113 15.5905C13.9854 15.2793 14.355 14.8371 14.5733 14.3197C14.7915 13.8022 14.8486 13.2329 14.7374 12.6836C14.6261 12.1343 14.3515 11.6297 13.9482 11.2337C13.545 10.8377 13.0312 10.568 12.4718 10.4587C11.9125 10.3495 11.3327 10.4056 10.8059 10.6199C10.279 10.8342 9.82864 11.1972 9.5118 11.6628C9.19496 12.1285 9.02585 12.676 9.02585 13.236C9.02585 13.987 9.32964 14.7073 9.87039 15.2383C10.4111 15.7694 11.1446 16.0677 11.9093 16.0677ZM11.9093 11.8202C12.1945 11.8202 12.4732 11.9032 12.7103 12.0588C12.9474 12.2144 13.1322 12.4355 13.2413 12.6942C13.3504 12.9529 13.379 13.2376 13.3233 13.5122C13.2677 13.7869 13.1304 14.0392 12.9288 14.2372C12.7271 14.4352 12.4702 14.57 12.1906 14.6247C11.9109 14.6793 11.621 14.6513 11.3576 14.5441C11.0941 14.4369 10.869 14.2555 10.7106 14.0226C10.5521 13.7898 10.4676 13.516 10.4676 13.236C10.4676 12.8605 10.6195 12.5004 10.8898 12.2349C11.1602 11.9693 11.5269 11.8202 11.9093 11.8202ZM11.9093 6.1568C12.1005 6.1568 12.2838 6.08221 12.419 5.94945C12.5542 5.81669 12.6302 5.63663 12.6302 5.44888V3.32511C12.6302 3.13736 12.5542 2.95729 12.419 2.82453C12.2838 2.69177 12.1005 2.61719 11.9093 2.61719C11.7181 2.61719 11.5348 2.69177 11.3996 2.82453C11.2644 2.95729 11.1884 3.13736 11.1884 3.32511V5.44888C11.1884 5.63663 11.2644 5.81669 11.3996 5.94945C11.5348 6.08221 11.7181 6.1568 11.9093 6.1568ZM15.5136 6.86472C15.6324 6.86412 15.7491 6.83472 15.8535 6.77915C15.9579 6.72357 16.0466 6.64354 16.1119 6.54616L17.5537 4.42239C17.6166 4.34568 17.6625 4.25692 17.6885 4.16178C17.7145 4.06665 17.72 3.96723 17.7046 3.86989C17.6893 3.77256 17.6534 3.67944 17.5993 3.59649C17.5452 3.51354 17.4741 3.4426 17.3905 3.38819C17.3069 3.33378 17.2126 3.2971 17.1137 3.28051C17.0149 3.26391 16.9136 3.26776 16.8163 3.2918C16.719 3.31585 16.6279 3.35957 16.5489 3.42015C16.4698 3.48074 16.4044 3.55687 16.357 3.64367L14.9153 5.76744C14.811 5.92351 14.7736 6.11374 14.8114 6.29671C14.8493 6.47968 14.9591 6.64058 15.1171 6.74437C15.2332 6.82422 15.3719 6.86631 15.5136 6.86472ZM7.70667 6.54616C7.77197 6.64354 7.86076 6.72357 7.96513 6.77915C8.06951 6.83472 8.18625 6.86412 8.30499 6.86472C8.44671 6.86631 8.58537 6.82422 8.70146 6.74437C8.85948 6.64058 8.96935 6.47968 9.00716 6.29671C9.04496 6.11374 9.00763 5.92351 8.9033 5.76744L7.46158 3.64367C7.41416 3.55687 7.34883 3.48074 7.26975 3.42015C7.19067 3.35957 7.09958 3.31585 7.00231 3.2918C6.90505 3.26776 6.80374 3.26391 6.70487 3.28051C6.606 3.2971 6.51175 3.33378 6.42814 3.38819C6.34453 3.4426 6.2734 3.51354 6.21931 3.59649C6.16521 3.67944 6.12933 3.77256 6.11397 3.86989C6.09861 3.96723 6.10411 4.06665 6.1301 4.16178C6.1561 4.25692 6.20202 4.34568 6.26494 4.42239L7.70667 6.54616Z" fill="white"/>
</svg>
